<svg id="Capa_1" enable-background="new 0 0 512.013 512.013" height="512" viewBox="0 0 512.013 512.013" width="512" xmlns="http://www.w3.org/2000/svg"><g><g><path d="m332.41 376.669c17.02-6.11 40.1-13.9 55.64-23.29 48.7-29.46 104.8.71 113.72 13.59 3.91 5.66-41.61 10.46-141.05 71.75-49.68 30.62-95.03 40.7-135.72 40.28-79.52-.83-141.22-41-182.54-41h-32.46v-90h20.94c67.06 0 97.26-45 135.06-45 36.54 0 41.65 28.43 86.69 30.94 46.38 2.58 89.78 10.85 89.78 29.06 0 5.19-3.28 9.77-10.06 13.67z" fill="#fce8d0"/><path d="m406 182.999c0 49.71-40.29 90-90 90s-90-40.29-90-90 90-150 90-150 90 100.29 90 150z" fill="#aaf9dd"/></g><g><path d="m416 182.999c0-44.725-64.078-124.952-92.558-156.679-1.896-2.114-4.603-3.321-7.442-3.321s-5.546 1.207-7.442 3.321c-28.612 31.874-92.558 111.969-92.558 156.679 0 55.141 44.86 100 100 100s100-44.859 100-100zm-180 0c0-34.22 52.262-102.382 80.001-134.81 27.739 32.417 79.999 100.562 79.999 134.81 0 44.112-35.888 80-80 80s-80-35.888-80-80z"/><circle cx="416" cy="406.999" r="10"/><path d="m10 447.999h32.46c15.812 0 36.246 6.948 59.908 14.994 33.423 11.365 75.02 25.51 122.529 26.005 51.475.586 97.764-15.075 141.07-41.766 5.344-3.294 10.689-6.521 15.889-9.59 4.755-2.809 6.334-8.94 3.526-13.695-2.808-4.756-8.938-6.334-13.695-3.527-5.308 3.134-10.762 6.427-16.214 9.786-43.1 26.564-85.753 39.254-130.369 38.794-44.308-.463-82.554-13.468-116.298-24.942-25.341-8.617-47.227-16.059-66.346-16.059h-22.46v-70h10.94c40.907 0 69.234-15.825 91.995-28.542 15.808-8.831 29.459-16.458 43.065-16.458 14.771 0 23.124 5.41 33.699 12.26 12.465 8.074 26.593 17.225 52.436 18.665 66.04 3.673 80.335 16.177 80.335 19.075 0 2.569-5.939 5.302-6.796 5.944-13.142 6.624-46.443 14.056-129.674 14.056-5.523 0-10 4.478-10 10s4.477 10 10 10c73.518 0 119.496-5.622 140.504-17.174 17.641-6.32 40.556-14.122 56.722-23.89 23.45-14.188 47.805-12.157 64.106-7.955 11.442 2.948 20.875 7.45 27.309 11.465-.532.206-1.065.412-1.598.618-7.399 2.86-17.532 6.778-30.431 12.436-5.058 2.219-7.36 8.116-5.142 13.175 2.218 5.058 8.116 7.362 13.174 5.142 12.493-5.479 22.387-9.305 29.611-12.098 6.734-2.604 11.447-4.426 14.745-6.32 7.644-4.39 8.594-11.907 4.991-17.122-11.709-16.908-73.604-48.826-127.113-16.455-8.473 5.119-19.669 9.851-30.787 14.074-3.8-20.013-36.239-31.458-98.845-34.939-20.54-1.146-31.292-8.109-42.675-15.482-11.745-7.607-23.89-15.474-44.571-15.474-18.813 0-35.332 9.229-52.819 18.998-21.815 12.188-46.542 26.002-82.241 26.002h-20.94c-5.523 0-10 4.478-10 10v90c0 5.521 4.477 9.999 10 9.999z"/></g></g></svg>